{"glyphs":{"0":{"ha":908,"x_min":0,"x_max":0,"o":"m 454 978 b 82 674 245 978 82 844 l 82 634 l 191 634 l 191 361 l 291 361 l 291 674 b 454 769 291 719 361 769 b 616 674 547 769 616 719 l 616 634 l 724 634 l 724 361 l 826 361 l 826 674 b 454 978 826 844 662 978 z m 686 596 l 616 596 l 616 284 b 454 189 616 239 547 189 b 291 284 361 189 291 239 l 291 323 l 153 323 l 153 596 l 82 596 l 82 284 b 454 -21 82 113 245 -21 b 826 284 662 -21 826 113 l 826 323 l 686 323 z "},"1":{"ha":493,"x_min":0,"x_max":0,"o":"m 190 970 l 44 720 l 295 720 l 295 447 l 400 447 l 400 970 z m 257 682 l 190 682 l 190 -1 l 400 -1 l 400 408 l 257 408 z "},"2":{"ha":844,"x_min":0,"x_max":0,"o":"m 248 232 b 481 402 320 297 401 351 b 519 427 493 411 506 419 b 648 633 597 479 643 553 l 559 633 b 469 499 555 589 530 539 l 431 474 b 187 295 349 421 264 365 l 68 186 l 68 -15 l 746 -15 l 746 193 l 205 193 z m 555 683 b 558 671 556 680 557 675 l 686 671 l 687 653 b 540 396 689 552 635 458 b 501 370 527 387 514 379 b 305 231 435 327 366 282 l 443 231 b 545 299 476 254 510 276 l 584 324 b 757 739 731 421 799 584 b 454 979 719 878 600 972 l 68 979 l 68 770 l 446 770 b 555 683 500 766 541 734 z "},"3":{"ha":854,"x_min":0,"x_max":0,"o":"m 600 977 l 69 977 l 69 767 l 555 767 l 555 622 l 690 622 l 690 282 l 764 282 l 764 813 b 600 977 764 903 690 977 z m 652 584 l 203 584 l 203 374 l 555 374 l 555 192 l 69 192 l 69 -17 l 593 -17 b 764 153 687 -17 764 59 l 764 244 l 652 244 z "},"4":{"ha":843,"x_min":0,"x_max":0,"o":"m 280 975 l 71 975 l 71 435 l 501 335 l 501 394 l 280 446 z m 540 970 l 540 541 l 318 593 l 318 476 l 539 425 l 539 326 l 540 326 l 540 -1 l 749 -1 l 749 970 z "},"5":{"ha":900,"x_min":0,"x_max":0,"o":"m 613 333 l 700 333 b 520 514 691 435 614 514 l 297 514 l 329 752 l 801 752 l 801 962 l 144 962 l 78 429 l 520 429 b 613 333 567 429 606 387 z m 520 638 l 352 638 l 340 552 l 520 553 b 739 314 640 553 739 445 l 739 295 l 613 295 b 520 199 606 240 567 199 l 82 199 l 82 -10 l 520 -10 b 824 314 688 -10 824 135 b 520 638 824 493 688 638 z "},"6":{"ha":885,"x_min":0,"x_max":0,"o":"m 504 638 l 368 638 l 368 553 l 504 553 b 723 314 625 553 723 445 l 723 295 l 598 295 b 504 199 591 240 552 199 l 344 199 b 286 258 312 199 286 225 l 286 370 b 344 429 286 403 312 429 l 504 429 b 598 333 552 429 591 387 l 684 333 b 504 514 676 435 598 514 l 330 514 l 330 637 b 329 637 330 637 330 637 b 547 752 377 707 458 752 l 786 752 l 786 962 l 547 962 b 77 546 309 962 107 783 l 76 258 b 344 -10 76 110 197 -10 l 504 -10 b 809 314 672 -10 809 135 b 504 638 809 493 672 638 z "},"7":{"ha":742,"x_min":0,"x_max":0,"o":"m 570 714 l 436 714 l 68 -2 l 301 -2 l 511 407 l 412 407 z m 57 962 l 57 752 l 632 752 l 475 445 l 531 445 l 688 752 l 689 752 l 689 962 z "},"8":{"ha":913,"x_min":0,"x_max":0,"o":"m 703 332 b 684 399 703 356 696 379 b 684 399 684 399 684 399 b 683 400 684 399 683 400 b 670 417 679 406 675 412 b 668 420 670 418 669 419 b 652 434 663 425 658 430 b 651 435 651 435 651 435 b 638 443 647 438 643 441 b 637 444 638 444 638 444 b 623 451 633 447 628 449 b 623 451 623 451 623 451 b 609 456 618 453 614 455 b 605 457 608 456 606 457 b 594 459 601 458 597 459 b 589 460 592 459 591 460 b 589 460 589 460 589 460 l 589 460 b 574 461 584 461 579 461 l 323 461 l 323 462 b 304 464 316 462 310 463 b 299 465 302 464 301 465 b 286 468 295 466 290 467 b 281 470 284 469 283 469 b 266 476 276 472 271 473 b 265 476 266 476 265 476 b 248 485 259 479 253 482 b 247 486 248 485 247 486 b 233 496 242 489 237 492 b 231 497 232 496 232 497 b 218 509 226 501 222 505 b 217 509 218 509 218 509 b 194 539 208 518 200 528 b 170 623 179 564 170 592 l 170 680 l 85 680 l 85 623 b 132 478 85 569 102 519 b 85 332 102 437 85 386 l 85 219 b 321 -17 85 89 191 -17 l 590 -17 b 827 219 721 -17 827 89 l 827 238 l 703 238 z m 617 219 b 590 192 617 204 605 192 l 321 192 b 294 219 306 192 294 204 l 294 332 b 338 375 294 356 314 375 l 574 375 b 617 332 598 375 617 356 l 617 219 z m 827 737 b 587 977 827 869 719 977 l 325 977 b 85 737 192 977 85 869 l 85 718 l 208 718 l 208 623 b 227 559 208 599 215 577 b 227 559 227 559 227 559 b 227 558 227 558 227 558 b 239 541 231 552 235 547 b 242 539 240 541 241 540 b 257 525 247 534 252 529 b 258 524 257 525 258 524 b 270 516 262 521 266 519 b 271 516 270 516 271 516 b 284 509 275 513 280 511 b 285 509 285 509 285 509 b 298 504 289 507 293 506 b 302 503 299 504 300 504 b 312 501 305 502 309 502 b 317 501 314 501 315 501 b 323 500 319 500 321 500 l 323 500 b 331 500 326 500 328 500 l 589 500 l 589 498 b 607 495 595 498 601 497 b 613 494 609 495 611 495 b 625 491 617 493 621 492 b 630 489 627 490 629 490 b 644 483 635 487 640 485 b 647 482 645 483 646 482 b 663 473 653 479 658 476 b 664 472 663 473 664 473 b 678 462 669 469 674 466 b 680 460 679 462 680 461 b 692 449 685 457 689 453 b 694 448 693 449 693 448 b 717 418 703 439 711 429 b 741 332 732 392 741 363 l 741 276 l 827 276 l 827 332 b 780 478 827 386 809 437 b 827 623 809 519 827 569 z m 617 623 b 580 585 617 602 601 585 l 331 585 b 294 623 311 585 294 602 l 294 737 b 325 767 294 754 308 767 l 587 767 b 617 737 604 767 617 754 z "},"9":{"ha":883,"x_min":0,"x_max":0,"o":"m 539 962 l 379 962 b 75 656 217 962 84 826 l 198 656 l 198 637 b 379 437 198 527 279 437 l 515 437 l 515 522 l 379 522 b 283 637 326 522 283 574 b 379 752 283 701 326 752 l 539 752 b 597 694 571 752 597 726 l 597 581 b 553 524 597 554 578 531 l 553 399 l 379 399 b 160 618 264 399 169 495 l 75 618 b 379 313 84 448 217 313 b 554 314 379 313 549 313 b 336 199 506 244 425 199 l 97 199 l 97 -10 l 336 -10 b 806 405 574 -10 776 168 l 807 694 b 539 962 807 841 686 962 z "},"\u0000":{"ha":0,"x_min":0,"x_max":0,"o":""},"\n":{"ha":0,"x_min":0,"x_max":0,"o":""},"\r":{"ha":0,"x_min":0,"x_max":0,"o":""}," ":{"ha":454,"x_min":0,"x_max":0,"o":""},"!":{"ha":393,"x_min":0,"x_max":0,"o":"m 92 970 l 92 220 l 196 220 l 196 359 l 301 359 l 301 970 z m 234 130 l 92 130 l 92 1 l 301 1 l 301 254 l 234 254 z "},"\"":{"ha":307,"x_min":0,"x_max":0,"o":"m 25 921 l 69 921 l 55 823 l 133 921 l 133 1029 l 25 1029 z m 174 1029 l 174 921 l 218 921 l 204 823 l 282 921 l 282 1029 z "},"“":{"ha":307,"x_min":0,"x_max":0,"o":"m 25 921 l 69 921 l 55 823 l 133 921 l 133 1029 l 25 1029 z m 174 1029 l 174 921 l 218 921 l 204 823 l 282 921 l 282 1029 z "},"”":{"ha":307,"x_min":0,"x_max":0,"o":"m 25 921 l 69 921 l 55 823 l 133 921 l 133 1029 l 25 1029 z m 174 1029 l 174 921 l 218 921 l 204 823 l 282 921 l 282 1029 z "},"#":{"ha":1201,"x_min":0,"x_max":0,"o":"m 932 707 l 1015 972 l 862 972 l 779 707 l 737 574 l 1112 574 l 1154 707 z m 874 523 l 720 523 l 682 400 l 484 400 l 538 574 l 680 574 l 722 707 l 580 707 l 663 972 l 510 972 l 427 707 l 186 707 l 144 574 l 385 574 l 330 400 l 88 400 l 46 267 l 289 267 l 206 2 l 359 2 l 442 267 l 641 267 l 558 2 l 711 2 l 794 267 l 1014 267 l 1056 400 l 836 400 z "},"$":{"ha":767,"x_min":0,"x_max":0,"o":"m 493 570 l 493 572 l 450 572 l 450 723 l 677 723 l 677 894 l 450 894 l 450 972 l 316 972 l 316 894 l 275 894 b 78 697 166 894 78 806 l 78 603 b 273 401 78 494 165 405 l 273 400 l 316 400 l 316 247 l 89 247 l 89 76 l 316 76 l 316 2 l 450 2 l 450 76 l 494 76 b 688 271 601 76 688 163 l 688 363 b 493 570 688 474 601 564 z m 280 572 b 249 603 263 572 249 586 l 249 697 b 275 723 249 711 261 723 l 316 723 l 316 572 l 280 572 z m 517 271 b 494 247 517 258 506 247 l 450 247 l 450 400 l 480 400 b 517 363 500 400 517 383 z "},"%":{"ha":853,"x_min":0,"x_max":0,"o":"m 530 972 l 92 2 l 322 2 l 759 972 z m 690 207 l 552 326 l 552 0 l 797 0 l 797 207 z m 299 628 l 299 973 l 54 973 l 54 765 l 162 765 z "},"&":{"ha":985,"x_min":0,"x_max":0,"o":"m 499 572 l 382 572 b 351 623 368 572 351 594 l 351 732 b 377 777 351 759 366 777 l 693 777 l 693 641 l 865 641 l 865 948 l 377 948 b 180 732 268 948 180 851 l 180 623 b 190 551 180 598 183 574 b 67 343 118 516 67 436 l 67 235 b 261 22 67 118 154 22 l 739 22 l 799 400 l 921 400 l 921 571 l 499 571 z m 593 193 l 261 193 b 238 235 252 193 238 210 l 238 343 b 275 400 238 375 257 400 l 626 400 z "},"'":{"ha":158,"x_min":0,"x_max":0,"o":"m 25 1029 l 25 921 l 69 921 l 55 823 l 133 921 l 133 1029 z "},"‘":{"ha":158,"x_min":0,"x_max":0,"o":"m 25 1029 l 25 921 l 69 921 l 55 823 l 133 921 l 133 1029 z "},"’":{"ha":158,"x_min":0,"x_max":0,"o":"m 25 1029 l 25 921 l 69 921 l 55 823 l 133 921 l 133 1029 z "},"(":{"ha":531,"x_min":0,"x_max":0,"o":"m 281 972 l 494 972 l 494 1105 l 278 1105 b 93 839 191 1105 98 1005 l 93 117 b 276 -136 95 -124 246 -136 l 494 -136 l 494 -3 l 276 -3 b 226 118 246 -3 227 45 l 226 835 b 281 972 229 925 266 966 z "},")":{"ha":531,"x_min":0,"x_max":0,"o":"m 437 839 b 252 1105 432 1005 339 1105 l 36 1105 l 36 972 l 249 972 b 304 835 264 966 301 925 l 304 118 b 254 -3 303 45 283 -3 l 36 -3 l 36 -136 l 254 -136 b 437 118 284 -136 435 -124 l 437 836 z "},"*":{"ha":842,"x_min":0,"x_max":0,"o":"m 356 600 l 125 737 l 57 623 l 292 483 l 57 343 l 125 228 l 356 366 z m 553 483 l 489 445 l 423 405 l 356 366 l 356 97 l 489 97 l 489 365 l 720 228 l 788 343 z m 546 542 l 610 579 l 764 671 l 696 786 l 546 697 l 546 870 l 413 870 l 413 462 l 480 502 z "},"+":{"ha":519,"x_min":0,"x_max":0,"o":"m 306 400 l 306 572 l 212 572 l 212 400 l 40 400 l 40 306 l 212 306 l 212 134 l 306 134 l 306 306 l 478 306 l 478 400 z "},",":{"ha":156,"x_min":0,"x_max":0,"o":"m 24 109 l 24 1 l 68 1 l 54 -98 l 131 1 l 131 109 z "},"-":{"ha":478,"x_min":0,"x_max":0,"o":"m 457 306 l 457 400 l 19 400 l 19 306 z "},".":{"ha":153,"x_min":0,"x_max":0,"o":"m 130 1 l 130 109 l 22 109 l 22 1 z "},"/":{"ha":585,"x_min":0,"x_max":0,"o":"m 440 1012 l 21 -35 l 152 -35 l 570 1012 z "},":":{"ha":183,"x_min":0,"x_max":0,"o":"m 145 446 l 145 553 l 38 553 l 38 446 z m 145 166 l 145 274 l 38 274 l 38 166 z "},";":{"ha":201,"x_min":0,"x_max":0,"o":"m 154 447 l 154 555 l 47 555 l 47 447 z m 154 276 l 46 276 l 46 168 l 47 168 l 47 168 l 90 168 l 76 70 l 153 168 l 154 168 l 154 276 l 154 276 z "},"<":{"ha":497,"x_min":0,"x_max":0,"o":"m 451 437 l 386 553 l 234 468 l 211 454 l 31 352 l 98 314 l 165 275 l 229 239 l 385 150 l 451 265 l 300 352 z "},"=":{"ha":503,"x_min":0,"x_max":0,"o":"m 470 396 l 470 504 l 32 504 l 32 396 z m 470 266 l 470 333 l 32 333 l 32 266 z "},">":{"ha":497,"x_min":0,"x_max":0,"o":"m 286 454 l 263 467 l 111 553 l 46 437 l 197 352 l 46 265 l 112 150 l 268 239 l 332 275 l 399 314 l 467 352 z "},"?":{"ha":817,"x_min":0,"x_max":0,"o":"m 207 122 l 207 257 l 141 257 l 141 0 l 350 0 l 350 122 z m 745 736 b 441 976 707 875 587 970 l 56 977 l 56 767 l 433 767 b 543 681 488 764 529 732 b 456 497 557 629 542 553 l 418 472 b 245 352 361 434 302 396 l 245 217 l 415 217 b 533 296 452 244 492 270 b 571 322 546 305 559 313 b 745 736 719 419 787 582 z "},"@":{"ha":983,"x_min":0,"x_max":0,"o":"m 485 675 b 279 469 372 675 279 583 l 279 254 l 898 254 l 898 893 l 482 893 b 77 488 258 893 77 711 l 76 48 l 888 48 l 888 181 l 210 181 l 210 488 b 482 759 210 638 332 759 l 765 759 l 765 387 l 695 387 l 695 675 z m 562 387 l 413 387 l 413 469 b 485 542 413 509 445 542 l 562 542 z "},"A":{"ha":894,"x_min":0,"x_max":0,"o":"m 512 531 l 604 330 l 457 330 l 426 263 l 865 263 l 512 1032 l 228 414 l 457 414 z m 808 206 l 331 206 l 400 357 l 171 357 l 6 -2 l 236 -2 l 266 63 l 643 63 l 674 -2 l 866 81 z "},"À":{"ha":894,"x_min":0,"x_max":0,"o":"m 512 531 l 604 330 l 457 330 l 426 263 l 865 263 l 512 1032 l 228 414 l 457 414 z m 808 206 l 331 206 l 400 357 l 171 357 l 6 -2 l 236 -2 l 266 63 l 643 63 l 674 -2 l 866 81 z "},"Á":{"ha":894,"x_min":0,"x_max":0,"o":"m 512 531 l 604 330 l 457 330 l 426 263 l 865 263 l 512 1032 l 228 414 l 457 414 z m 808 206 l 331 206 l 400 357 l 171 357 l 6 -2 l 236 -2 l 266 63 l 643 63 l 674 -2 l 866 81 z "},"Â":{"ha":894,"x_min":0,"x_max":0,"o":"m 512 531 l 604 330 l 457 330 l 426 263 l 865 263 l 512 1032 l 228 414 l 457 414 z m 808 206 l 331 206 l 400 357 l 171 357 l 6 -2 l 236 -2 l 266 63 l 643 63 l 674 -2 l 866 81 z "},"Ã":{"ha":894,"x_min":0,"x_max":0,"o":"m 512 531 l 604 330 l 457 330 l 426 263 l 865 263 l 512 1032 l 228 414 l 457 414 z m 808 206 l 331 206 l 400 357 l 171 357 l 6 -2 l 236 -2 l 266 63 l 643 63 l 674 -2 l 866 81 z "},"Ä":{"ha":894,"x_min":0,"x_max":0,"o":"m 512 531 l 604 330 l 457 330 l 426 263 l 865 263 l 512 1032 l 228 414 l 457 414 z m 808 206 l 331 206 l 400 357 l 171 357 l 6 -2 l 236 -2 l 266 63 l 643 63 l 674 -2 l 866 81 z "},"Å":{"ha":894,"x_min":0,"x_max":0,"o":"m 512 531 l 604 330 l 457 330 l 426 263 l 865 263 l 512 1032 l 228 414 l 457 414 z m 808 206 l 331 206 l 400 357 l 171 357 l 6 -2 l 236 -2 l 266 63 l 643 63 l 674 -2 l 866 81 z "},"B":{"ha":963,"x_min":0,"x_max":0,"o":"m 815 565 b 854 704 840 606 854 653 b 588 970 854 851 735 970 l 291 970 l 291 704 l 358 704 l 358 761 l 588 761 b 645 704 619 761 645 735 b 588 647 645 672 619 647 l 234 647 l 234 913 l 92 913 l 92 0 l 442 0 l 442 122 l 301 122 l 301 438 l 607 438 b 702 342 659 438 702 395 b 607 247 702 290 659 247 l 360 247 l 360 179 l 499 179 l 499 38 l 608 38 b 912 342 776 38 912 175 b 815 565 912 430 874 509 z "},"C":{"ha":917,"x_min":0,"x_max":0,"o":"m 144 504 b 167 370 144 458 151 413 b 216 274 179 336 195 304 l 329 366 b 289 504 304 406 289 453 b 546 761 289 646 404 761 b 737 675 622 761 690 728 l 892 813 b 863 843 883 824 873 833 b 531 969 772 928 654 973 b 81 533 289 962 96 770 l 144 533 z m 546 205 b 342 285 470 205 397 233 l 331 295 l 206 194 l 188 216 b 113 351 156 256 130 302 b 87 476 98 392 90 433 l 33 476 b 153 172 39 368 78 261 b 547 -8 254 53 400 -8 b 867 104 660 -8 774 28 l 733 271 b 546 205 680 228 614 205 z "},"Ç":{"ha":917,"x_min":0,"x_max":0,"o":"m 144 504 b 167 370 144 458 151 413 b 216 274 179 336 195 304 l 329 366 b 289 504 304 406 289 453 b 546 761 289 646 404 761 b 737 675 622 761 690 728 l 892 813 b 863 843 883 824 873 833 b 531 969 772 928 654 973 b 81 533 289 962 96 770 l 144 533 z m 546 205 b 342 285 470 205 397 233 l 331 295 l 206 194 l 188 216 b 113 351 156 256 130 302 b 87 476 98 392 90 433 l 33 476 b 153 172 39 368 78 261 b 547 -8 254 53 400 -8 b 867 104 660 -8 774 28 l 733 271 b 546 205 680 228 614 205 z "},"D":{"ha":968,"x_min":0,"x_max":0,"o":"m 780 860 b 484 984 699 940 595 984 l 146 983 l 146 901 l 226 901 l 226 470 l 355 470 l 355 775 l 485 775 b 633 711 539 775 592 752 b 712 518 683 662 712 591 b 484 262 712 379 608 262 l 355 262 l 355 52 l 485 52 b 921 518 725 52 921 261 b 780 860 921 647 870 772 z m 169 844 l 89 844 l 89 -6 l 298 -6 l 298 413 l 169 413 z "},"E":{"ha":879,"x_min":0,"x_max":0,"o":"m 281 330 l 325 330 l 325 397 l 133 397 l 133 519 l 72 519 l 72 2 l 763 2 l 763 211 l 281 211 z m 820 763 l 820 972 l 129 972 l 129 576 l 190 576 l 190 454 l 382 454 l 382 387 l 736 387 l 738 390 l 819 596 l 339 596 l 339 763 z "},"È":{"ha":879,"x_min":0,"x_max":0,"o":"m 281 330 l 325 330 l 325 397 l 133 397 l 133 519 l 72 519 l 72 2 l 763 2 l 763 211 l 281 211 z m 820 763 l 820 972 l 129 972 l 129 576 l 190 576 l 190 454 l 382 454 l 382 387 l 736 387 l 738 390 l 819 596 l 339 596 l 339 763 z "},"É":{"ha":879,"x_min":0,"x_max":0,"o":"m 281 330 l 325 330 l 325 397 l 133 397 l 133 519 l 72 519 l 72 2 l 763 2 l 763 211 l 281 211 z m 820 763 l 820 972 l 129 972 l 129 576 l 190 576 l 190 454 l 382 454 l 382 387 l 736 387 l 738 390 l 819 596 l 339 596 l 339 763 z "},"Ê":{"ha":879,"x_min":0,"x_max":0,"o":"m 281 330 l 325 330 l 325 397 l 133 397 l 133 519 l 72 519 l 72 2 l 763 2 l 763 211 l 281 211 z m 820 763 l 820 972 l 129 972 l 129 576 l 190 576 l 190 454 l 382 454 l 382 387 l 736 387 l 738 390 l 819 596 l 339 596 l 339 763 z "},"Ë":{"ha":879,"x_min":0,"x_max":0,"o":"m 281 330 l 325 330 l 325 397 l 133 397 l 133 519 l 72 519 l 72 2 l 763 2 l 763 211 l 281 211 z m 820 763 l 820 972 l 129 972 l 129 576 l 190 576 l 190 454 l 382 454 l 382 387 l 736 387 l 738 390 l 819 596 l 339 596 l 339 763 z "},"F":{"ha":858,"x_min":0,"x_max":0,"o":"m 223 845 l 88 845 l 88 0 l 297 0 l 297 274 l 599 274 l 682 484 l 223 484 z m 149 969 l 149 967 l 145 967 l 145 902 l 280 902 l 280 541 l 354 541 l 354 759 l 839 759 l 839 969 z "},"G":{"ha":1018,"x_min":0,"x_max":0,"o":"m 531 265 b 524 265 529 265 526 265 l 493 266 l 493 198 l 531 199 b 732 281 607 199 678 228 b 792 366 757 305 777 334 l 937 365 l 937 556 l 628 557 l 553 367 l 717 366 b 531 265 677 305 609 265 z m 828 293 b 534 134 765 197 657 134 b 500 135 523 134 512 134 l 463 139 l 458 141 l 457 220 b 311 318 399 236 348 269 b 258 522 267 376 248 448 b 363 705 268 596 305 661 b 568 759 421 750 494 769 b 751 653 641 749 706 711 l 917 780 b 236 871 754 993 449 1034 b 50 550 134 793 68 679 b 145 191 33 421 67 293 b 467 5 223 88 338 22 b 533 0 489 2 511 0 b 826 99 639 0 741 34 b 977 295 892 150 945 218 z "},"H":{"ha":1040,"x_min":0,"x_max":0,"o":"m 407 568 l 302 568 l 302 929 l 93 929 l 93 -3 l 302 -3 l 302 358 l 678 358 l 678 486 l 407 486 z m 945 967 l 738 967 l 738 625 l 464 625 l 464 543 l 736 543 l 738 89 l 738 89 l 947 -2 l 947 967 z "},"I":{"ha":417,"x_min":0,"x_max":0,"o":"m 138 970 l 138 799 l 290 799 l 290 533 l 347 533 l 347 970 z m 233 742 l 81 742 l 81 92 l 290 1 l 290 476 l 233 476 z "},"Ì":{"ha":417,"x_min":0,"x_max":0,"o":"m 138 970 l 138 799 l 290 799 l 290 533 l 347 533 l 347 970 z m 233 742 l 81 742 l 81 92 l 290 1 l 290 476 l 233 476 z "},"Í":{"ha":417,"x_min":0,"x_max":0,"o":"m 138 970 l 138 799 l 290 799 l 290 533 l 347 533 l 347 970 z m 233 742 l 81 742 l 81 92 l 290 1 l 290 476 l 233 476 z "},"Î":{"ha":417,"x_min":0,"x_max":0,"o":"m 138 970 l 138 799 l 290 799 l 290 533 l 347 533 l 347 970 z m 233 742 l 81 742 l 81 92 l 290 1 l 290 476 l 233 476 z "},"Ï":{"ha":417,"x_min":0,"x_max":0,"o":"m 138 970 l 138 799 l 290 799 l 290 533 l 347 533 l 347 970 z m 233 742 l 81 742 l 81 92 l 290 1 l 290 476 l 233 476 z "},"J":{"ha":846,"x_min":0,"x_max":0,"o":"m 663 766 l 522 766 l 522 427 l 521 427 b 298 204 521 304 421 204 b 236 213 277 204 256 207 l 4 112 l 4 112 l 3 111 b 298 -6 83 36 188 -6 b 521 57 380 -6 456 17 b 522 57 521 57 521 57 l 522 57 b 731 427 647 133 731 270 l 731 440 l 663 440 z m 579 963 l 579 823 l 720 823 l 720 497 l 788 497 l 788 963 z "},"K":{"ha":918,"x_min":0,"x_max":0,"o":"m 612 274 l 726 274 l 473 526 l 933 986 l 637 986 l 325 675 l 325 895 l 116 986 l 116 561 l 325 560 z m 574 217 l 287 503 l 78 504 l 78 -3 l 287 -3 l 287 321 l 605 3 l 901 3 l 688 217 z "},"L":{"ha":779,"x_min":0,"x_max":0,"o":"m 455 266 l 284 266 l 284 876 l 75 966 l 75 171 l 455 171 z m 512 209 l 512 114 l 132 114 l 132 0 l 759 0 l 759 209 z "},"M":{"ha":1414,"x_min":0,"x_max":0,"o":"m 1320 968 l 1320 968 l 731 380 l 141 970 l 140 970 l 140 761 l 578 323 l 578 237 l 731 84 l 1111 463 l 1111 91 l 1320 0 l 1320 0 l 1320 968 z m 83 0 l 293 0 l 293 428 l 521 199 l 521 285 l 83 723 z "},"N":{"ha":1024,"x_min":0,"x_max":0,"o":"m 721 879 l 721 462 l 139 970 l 139 781 l 626 356 l 626 266 l 930 1 l 930 970 z m 82 0 l 291 0 l 291 452 l 569 209 l 569 299 l 82 724 z "},"Ñ":{"ha":1024,"x_min":0,"x_max":0,"o":"m 721 879 l 721 462 l 139 970 l 139 781 l 626 356 l 626 266 l 930 1 l 930 970 z m 82 0 l 291 0 l 291 452 l 569 209 l 569 299 l 82 724 z "},"O":{"ha":1014,"x_min":0,"x_max":0,"o":"m 143 398 l 151 373 b 209 259 163 332 183 294 b 279 189 229 233 252 209 l 356 309 b 272 430 317 340 288 381 b 287 626 250 495 256 565 b 436 754 318 687 371 733 b 632 739 501 776 571 770 b 632 739 632 739 632 739 l 717 870 l 741 854 b 849 754 783 827 819 793 b 907 647 874 721 893 685 l 958 658 b 726 926 918 775 836 870 b 370 953 615 982 489 992 b 125 763 268 919 182 853 b 100 720 116 750 107 735 b 69 382 49 619 41 492 z m 947 598 l 869 580 l 861 605 b 803 719 849 647 829 685 b 733 790 783 746 760 770 l 657 672 b 741 551 696 641 725 600 b 726 355 762 486 757 417 b 712 332 722 347 717 339 b 577 227 681 282 633 246 b 381 242 512 206 442 211 l 296 109 l 272 124 b 163 225 230 151 193 185 b 105 331 139 257 119 293 l 56 320 b 287 55 96 205 177 110 b 642 28 398 -1 524 -11 b 913 261 761 67 857 150 b 947 598 964 362 974 488 z "},"Ò":{"ha":1014,"x_min":0,"x_max":0,"o":"m 143 398 l 151 373 b 209 259 163 332 183 294 b 279 189 229 233 252 209 l 356 309 b 272 430 317 340 288 381 b 287 626 250 495 256 565 b 436 754 318 687 371 733 b 632 739 501 776 571 770 b 632 739 632 739 632 739 l 717 870 l 741 854 b 849 754 783 827 819 793 b 907 647 874 721 893 685 l 958 658 b 726 926 918 775 836 870 b 370 953 615 982 489 992 b 125 763 268 919 182 853 b 100 720 116 750 107 735 b 69 382 49 619 41 492 z m 947 598 l 869 580 l 861 605 b 803 719 849 647 829 685 b 733 790 783 746 760 770 l 657 672 b 741 551 696 641 725 600 b 726 355 762 486 757 417 b 712 332 722 347 717 339 b 577 227 681 282 633 246 b 381 242 512 206 442 211 l 296 109 l 272 124 b 163 225 230 151 193 185 b 105 331 139 257 119 293 l 56 320 b 287 55 96 205 177 110 b 642 28 398 -1 524 -11 b 913 261 761 67 857 150 b 947 598 964 362 974 488 z "},"Ó":{"ha":1014,"x_min":0,"x_max":0,"o":"m 143 398 l 151 373 b 209 259 163 332 183 294 b 279 189 229 233 252 209 l 356 309 b 272 430 317 340 288 381 b 287 626 250 495 256 565 b 436 754 318 687 371 733 b 632 739 501 776 571 770 b 632 739 632 739 632 739 l 717 870 l 741 854 b 849 754 783 827 819 793 b 907 647 874 721 893 685 l 958 658 b 726 926 918 775 836 870 b 370 953 615 982 489 992 b 125 763 268 919 182 853 b 100 720 116 750 107 735 b 69 382 49 619 41 492 z m 947 598 l 869 580 l 861 605 b 803 719 849 647 829 685 b 733 790 783 746 760 770 l 657 672 b 741 551 696 641 725 600 b 726 355 762 486 757 417 b 712 332 722 347 717 339 b 577 227 681 282 633 246 b 381 242 512 206 442 211 l 296 109 l 272 124 b 163 225 230 151 193 185 b 105 331 139 257 119 293 l 56 320 b 287 55 96 205 177 110 b 642 28 398 -1 524 -11 b 913 261 761 67 857 150 b 947 598 964 362 974 488 z "},"Ô":{"ha":1014,"x_min":0,"x_max":0,"o":"m 143 398 l 151 373 b 209 259 163 332 183 294 b 279 189 229 233 252 209 l 356 309 b 272 430 317 340 288 381 b 287 626 250 495 256 565 b 436 754 318 687 371 733 b 632 739 501 776 571 770 b 632 739 632 739 632 739 l 717 870 l 741 854 b 849 754 783 827 819 793 b 907 647 874 721 893 685 l 958 658 b 726 926 918 775 836 870 b 370 953 615 982 489 992 b 125 763 268 919 182 853 b 100 720 116 750 107 735 b 69 382 49 619 41 492 z m 947 598 l 869 580 l 861 605 b 803 719 849 647 829 685 b 733 790 783 746 760 770 l 657 672 b 741 551 696 641 725 600 b 726 355 762 486 757 417 b 712 332 722 347 717 339 b 577 227 681 282 633 246 b 381 242 512 206 442 211 l 296 109 l 272 124 b 163 225 230 151 193 185 b 105 331 139 257 119 293 l 56 320 b 287 55 96 205 177 110 b 642 28 398 -1 524 -11 b 913 261 761 67 857 150 b 947 598 964 362 974 488 z "},"Õ":{"ha":1014,"x_min":0,"x_max":0,"o":"m 143 398 l 151 373 b 209 259 163 332 183 294 b 279 189 229 233 252 209 l 356 309 b 272 430 317 340 288 381 b 287 626 250 495 256 565 b 436 754 318 687 371 733 b 632 739 501 776 571 770 b 632 739 632 739 632 739 l 717 870 l 741 854 b 849 754 783 827 819 793 b 907 647 874 721 893 685 l 958 658 b 726 926 918 775 836 870 b 370 953 615 982 489 992 b 125 763 268 919 182 853 b 100 720 116 750 107 735 b 69 382 49 619 41 492 z m 947 598 l 869 580 l 861 605 b 803 719 849 647 829 685 b 733 790 783 746 760 770 l 657 672 b 741 551 696 641 725 600 b 726 355 762 486 757 417 b 712 332 722 347 717 339 b 577 227 681 282 633 246 b 381 242 512 206 442 211 l 296 109 l 272 124 b 163 225 230 151 193 185 b 105 331 139 257 119 293 l 56 320 b 287 55 96 205 177 110 b 642 28 398 -1 524 -11 b 913 261 761 67 857 150 b 947 598 964 362 974 488 z "},"Ö":{"ha":1014,"x_min":0,"x_max":0,"o":"m 143 398 l 151 373 b 209 259 163 332 183 294 b 279 189 229 233 252 209 l 356 309 b 272 430 317 340 288 381 b 287 626 250 495 256 565 b 436 754 318 687 371 733 b 632 739 501 776 571 770 b 632 739 632 739 632 739 l 717 870 l 741 854 b 849 754 783 827 819 793 b 907 647 874 721 893 685 l 958 658 b 726 926 918 775 836 870 b 370 953 615 982 489 992 b 125 763 268 919 182 853 b 100 720 116 750 107 735 b 69 382 49 619 41 492 z m 947 598 l 869 580 l 861 605 b 803 719 849 647 829 685 b 733 790 783 746 760 770 l 657 672 b 741 551 696 641 725 600 b 726 355 762 486 757 417 b 712 332 722 347 717 339 b 577 227 681 282 633 246 b 381 242 512 206 442 211 l 296 109 l 272 124 b 163 225 230 151 193 185 b 105 331 139 257 119 293 l 56 320 b 287 55 96 205 177 110 b 642 28 398 -1 524 -11 b 913 261 761 67 857 150 b 947 598 964 362 974 488 z "},"Ø":{"ha":1014,"x_min":0,"x_max":0,"o":"m 143 398 l 151 373 b 209 259 163 332 183 294 b 279 189 229 233 252 209 l 356 309 b 272 430 317 340 288 381 b 287 626 250 495 256 565 b 436 754 318 687 371 733 b 632 739 501 776 571 770 b 632 739 632 739 632 739 l 717 870 l 741 854 b 849 754 783 827 819 793 b 907 647 874 721 893 685 l 958 658 b 726 926 918 775 836 870 b 370 953 615 982 489 992 b 125 763 268 919 182 853 b 100 720 116 750 107 735 b 69 382 49 619 41 492 z m 947 598 l 869 580 l 861 605 b 803 719 849 647 829 685 b 733 790 783 746 760 770 l 657 672 b 741 551 696 641 725 600 b 726 355 762 486 757 417 b 712 332 722 347 717 339 b 577 227 681 282 633 246 b 381 242 512 206 442 211 l 296 109 l 272 124 b 163 225 230 151 193 185 b 105 331 139 257 119 293 l 56 320 b 287 55 96 205 177 110 b 642 28 398 -1 524 -11 b 913 261 761 67 857 150 b 947 598 964 362 974 488 z "},"P":{"ha":951,"x_min":0,"x_max":0,"o":"m 301 369 l 301 608 l 232 608 l 232 912 l 92 912 l 92 -1 l 301 -1 l 301 304 l 482 304 l 482 369 z m 615 970 l 289 970 l 289 665 l 358 665 l 358 760 l 615 760 b 710 665 667 760 710 718 b 615 570 710 613 667 570 l 358 570 l 358 426 l 539 426 l 539 361 l 615 361 b 919 665 783 361 919 497 b 615 970 919 833 783 970 z "},"Q":{"ha":1071,"x_min":0,"x_max":0,"o":"m 531 234 b 405 260 489 233 446 241 b 283 614 274 324 219 483 b 521 763 328 708 423 763 b 636 737 560 763 599 755 b 780 444 748 683 804 560 l 944 280 b 997 499 979 347 997 422 b 521 975 997 761 783 975 b 44 499 258 975 44 761 b 493 23 44 248 244 38 l 493 111 l 521 111 b 636 129 561 111 599 117 z m 688 455 l 481 366 l 737 110 b 694 89 723 103 708 95 b 550 55 648 70 599 58 l 550 -12 b 689 15 597 -10 643 -1 b 786 61 723 27 755 42 l 880 -33 l 1028 115 z "},"R":{"ha":974,"x_min":0,"x_max":0,"o":"m 358 761 l 615 761 b 710 666 667 761 710 718 b 615 571 710 613 667 571 l 358 571 l 358 518 l 687 518 l 764 401 b 919 666 857 453 919 552 b 615 970 919 834 783 970 l 289 969 l 289 665 l 358 665 z m 707 344 b 707 344 707 344 707 344 l 630 461 l 301 461 l 301 609 l 232 609 l 232 913 l 92 913 l 92 1 l 301 92 l 301 304 l 482 304 l 675 0 l 925 0 z "},"S":{"ha":942,"x_min":0,"x_max":0,"o":"m 565 514 l 370 514 b 181 664 293 514 186 581 l 44 664 b 339 374 44 504 177 374 l 565 374 b 650 290 612 374 650 336 b 565 206 650 243 612 206 l 108 206 l 108 0 l 565 0 b 860 290 727 0 860 130 l 793 290 b 565 514 793 414 691 514 z m 385 559 l 611 559 b 844 335 714 560 837 454 l 906 335 b 806 540 906 415 864 487 b 611 625 749 592 675 625 l 385 625 b 300 709 338 625 300 663 b 385 793 300 755 338 793 l 693 793 l 899 999 l 385 999 b 90 709 223 999 90 869 l 233 709 b 385 559 233 626 301 559 z "},"T":{"ha":889,"x_min":0,"x_max":0,"o":"m 458 848 l 229 848 l 229 920 l 21 920 l 21 711 l 322 711 l 322 7 l 531 7 l 531 537 l 458 537 z m 286 977 l 286 905 l 515 905 l 515 594 l 588 594 l 588 768 l 806 768 l 889 977 z "},"U":{"ha":999,"x_min":0,"x_max":0,"o":"m 735 956 l 735 434 b 545 219 735 326 650 234 l 545 163 b 718 251 612 170 673 201 l 737 272 l 838 180 b 898 286 863 212 883 248 b 925 433 916 333 925 382 l 925 956 z m 518 104 l 489 104 l 488 192 l 478 193 b 333 276 422 203 370 232 b 275 433 296 319 275 375 l 276 867 l 72 955 l 72 434 b 518 -11 72 189 272 -11 b 826 114 637 -11 746 37 l 740 192 b 518 104 680 136 600 104 z "},"Ù":{"ha":999,"x_min":0,"x_max":0,"o":"m 735 956 l 735 434 b 545 219 735 326 650 234 l 545 163 b 718 251 612 170 673 201 l 737 272 l 838 180 b 898 286 863 212 883 248 b 925 433 916 333 925 382 l 925 956 z m 518 104 l 489 104 l 488 192 l 478 193 b 333 276 422 203 370 232 b 275 433 296 319 275 375 l 276 867 l 72 955 l 72 434 b 518 -11 72 189 272 -11 b 826 114 637 -11 746 37 l 740 192 b 518 104 680 136 600 104 z "},"Ú":{"ha":999,"x_min":0,"x_max":0,"o":"m 735 956 l 735 434 b 545 219 735 326 650 234 l 545 163 b 718 251 612 170 673 201 l 737 272 l 838 180 b 898 286 863 212 883 248 b 925 433 916 333 925 382 l 925 956 z m 518 104 l 489 104 l 488 192 l 478 193 b 333 276 422 203 370 232 b 275 433 296 319 275 375 l 276 867 l 72 955 l 72 434 b 518 -11 72 189 272 -11 b 826 114 637 -11 746 37 l 740 192 b 518 104 680 136 600 104 z "},"Û":{"ha":999,"x_min":0,"x_max":0,"o":"m 735 956 l 735 434 b 545 219 735 326 650 234 l 545 163 b 718 251 612 170 673 201 l 737 272 l 838 180 b 898 286 863 212 883 248 b 925 433 916 333 925 382 l 925 956 z m 518 104 l 489 104 l 488 192 l 478 193 b 333 276 422 203 370 232 b 275 433 296 319 275 375 l 276 867 l 72 955 l 72 434 b 518 -11 72 189 272 -11 b 826 114 637 -11 746 37 l 740 192 b 518 104 680 136 600 104 z "},"Ü":{"ha":999,"x_min":0,"x_max":0,"o":"m 735 956 l 735 434 b 545 219 735 326 650 234 l 545 163 b 718 251 612 170 673 201 l 737 272 l 838 180 b 898 286 863 212 883 248 b 925 433 916 333 925 382 l 925 956 z m 518 104 l 489 104 l 488 192 l 478 193 b 333 276 422 203 370 232 b 275 433 296 319 275 375 l 276 867 l 72 955 l 72 434 b 518 -11 72 189 272 -11 b 826 114 637 -11 746 37 l 740 192 b 518 104 680 136 600 104 z "},"V":{"ha":982,"x_min":0,"x_max":0,"o":"m 750 972 l 615 681 l 690 519 l 530 170 l 570 82 l 980 972 z m 614 500 l 539 662 l 455 477 l 236 953 l 6 953 l 455 -24 l 494 63 l 454 151 z "},"W":{"ha":1428,"x_min":0,"x_max":0,"o":"m 478 434 l 230 973 l 0 973 l 449 -4 l 452 -12 l 682 368 l 847 96 l 913 239 l 913 239 l 636 694 z m 1191 949 l 963 453 l 758 789 l 758 789 l 712 713 l 989 258 l 989 258 l 923 115 l 989 7 l 992 15 l 1421 949 z "},"X":{"ha":992,"x_min":0,"x_max":0,"o":"m 866 246 l 665 528 l 987 980 l 986 980 l 730 980 l 537 708 l 536 709 l 343 981 l 245 981 l 768 246 z m 717 199 l 201 924 l 42 924 l 358 480 l 15 -1 l 272 -1 l 486 300 l 700 -1 l 956 -1 l 815 199 z "},"Y":{"ha":972,"x_min":0,"x_max":0,"o":"m 215 770 l 61 770 l 345 357 l 345 2 l 554 2 l 554 349 l 514 349 z m 737 989 l 489 629 l 241 989 l -13 989 l 99 827 l 253 827 l 552 406 l 592 406 l 592 409 l 991 989 z "},"Ý":{"ha":972,"x_min":0,"x_max":0,"o":"m 215 770 l 61 770 l 345 357 l 345 2 l 554 2 l 554 349 l 514 349 z m 737 989 l 489 629 l 241 989 l -13 989 l 99 827 l 253 827 l 552 406 l 592 406 l 592 409 l 991 989 z "},"Ÿ":{"ha":972,"x_min":0,"x_max":0,"o":"m 215 770 l 61 770 l 345 357 l 345 2 l 554 2 l 554 349 l 514 349 z m 737 989 l 489 629 l 241 989 l -13 989 l 99 827 l 253 827 l 552 406 l 592 406 l 592 409 l 991 989 z "},"Z":{"ha":1056,"x_min":0,"x_max":0,"o":"m 633 500 l 530 500 l 683 709 l 683 709 l 527 709 l 8 4 l 805 4 l 959 213 l 422 213 z m 122 976 l 122 767 l 798 767 l 798 766 l 644 557 l 747 557 l 1054 975 l 1054 976 z "},"[":{"ha":453,"x_min":0,"x_max":0,"o":"m 416 962 l 416 1096 l 93 1096 l 93 -122 l 416 -122 l 416 11 l 226 11 l 226 962 z "},"]":{"ha":453,"x_min":0,"x_max":0,"o":"m 36 1096 l 36 962 l 226 962 l 226 11 l 36 11 l 36 -122 l 360 -122 l 360 1096 z "},"_":{"ha":646,"x_min":0,"x_max":0,"o":"m 625 2 l 625 95 l 21 95 l 21 2 z "},"`":{"ha":158,"x_min":0,"x_max":0,"o":"m 25 1029 l 25 921 l 69 921 l 55 823 l 133 921 l 133 1029 z "},"a":{"ha":881,"x_min":0,"x_max":0,"o":"m 455 477 l 547 276 l 405 276 l 383 228 l 799 228 l 455 978 l 180 379 l 410 379 z m 817 190 l 323 190 l 392 341 l 162 341 l 6 1 l 236 1 l 266 67 l 644 67 l 644 67 l 674 1 l 866 84 z "},"à":{"ha":881,"x_min":0,"x_max":0,"o":"m 455 477 l 547 276 l 405 276 l 383 228 l 799 228 l 455 978 l 180 379 l 410 379 z m 817 190 l 323 190 l 392 341 l 162 341 l 6 1 l 236 1 l 266 67 l 644 67 l 644 67 l 674 1 l 866 84 z "},"á":{"ha":881,"x_min":0,"x_max":0,"o":"m 455 477 l 547 276 l 405 276 l 383 228 l 799 228 l 455 978 l 180 379 l 410 379 z m 817 190 l 323 190 l 392 341 l 162 341 l 6 1 l 236 1 l 266 67 l 644 67 l 644 67 l 674 1 l 866 84 z "},"â":{"ha":881,"x_min":0,"x_max":0,"o":"m 455 477 l 547 276 l 405 276 l 383 228 l 799 228 l 455 978 l 180 379 l 410 379 z m 817 190 l 323 190 l 392 341 l 162 341 l 6 1 l 236 1 l 266 67 l 644 67 l 644 67 l 674 1 l 866 84 z "},"ã":{"ha":881,"x_min":0,"x_max":0,"o":"m 455 477 l 547 276 l 405 276 l 383 228 l 799 228 l 455 978 l 180 379 l 410 379 z m 817 190 l 323 190 l 392 341 l 162 341 l 6 1 l 236 1 l 266 67 l 644 67 l 644 67 l 674 1 l 866 84 z "},"ä":{"ha":881,"x_min":0,"x_max":0,"o":"m 455 477 l 547 276 l 405 276 l 383 228 l 799 228 l 455 978 l 180 379 l 410 379 z m 817 190 l 323 190 l 392 341 l 162 341 l 6 1 l 236 1 l 266 67 l 644 67 l 644 67 l 674 1 l 866 84 z "},"å":{"ha":881,"x_min":0,"x_max":0,"o":"m 455 477 l 547 276 l 405 276 l 383 228 l 799 228 l 455 978 l 180 379 l 410 379 z m 817 190 l 323 190 l 392 341 l 162 341 l 6 1 l 236 1 l 266 67 l 644 67 l 644 67 l 674 1 l 866 84 z "},"b":{"ha":908,"x_min":0,"x_max":0,"o":"m 759 527 b 799 666 784 567 799 615 b 532 932 799 813 679 932 l 241 932 l 241 647 l 302 647 l 302 723 l 532 723 b 589 666 564 723 589 697 b 532 609 589 634 564 609 l 202 609 l 202 932 l 93 932 l 93 0 l 443 0 l 443 103 l 302 103 l 302 400 l 551 400 b 646 304 604 400 646 357 b 551 209 646 252 604 209 l 340 209 l 340 141 l 481 141 l 481 0 l 551 0 b 856 304 719 0 856 137 b 759 527 856 392 818 471 z "},"c":{"ha":875,"x_min":0,"x_max":0,"o":"m 695 286 b 511 209 647 237 580 209 b 372 251 460 209 412 225 l 247 150 l 235 161 b 101 447 154 236 106 339 l 46 447 b 512 0 56 199 261 0 b 844 139 636 0 757 51 z m 138 466 b 249 200 138 367 178 271 l 341 275 b 255 466 288 322 255 390 b 511 723 255 608 370 723 b 693 648 579 723 645 696 l 841 796 b 511 932 754 882 634 932 b 46 485 261 932 56 733 l 138 485 l 138 466 z "},"ç":{"ha":875,"x_min":0,"x_max":0,"o":"m 695 286 b 511 209 647 237 580 209 b 372 251 460 209 412 225 l 247 150 l 235 161 b 101 447 154 236 106 339 l 46 447 b 512 0 56 199 261 0 b 844 139 636 0 757 51 z m 138 466 b 249 200 138 367 178 271 l 341 275 b 255 466 288 322 255 390 b 511 723 255 608 370 723 b 693 648 579 723 645 696 l 841 796 b 511 932 754 882 634 932 b 46 485 261 932 56 733 l 138 485 l 138 466 z "},"d":{"ha":915,"x_min":0,"x_max":0,"o":"m 726 810 b 430 935 645 891 540 935 l 92 934 l 92 850 l 198 850 l 198 388 l 301 388 l 301 725 l 431 725 b 579 662 485 725 537 703 b 657 469 629 612 657 542 b 429 212 657 330 554 212 l 338 212 l 338 3 l 431 3 b 867 469 671 3 867 212 b 726 810 867 598 815 722 z m 160 812 l 92 812 l 92 2 l 300 2 l 300 350 l 160 350 z "},"e":{"ha":856,"x_min":0,"x_max":0,"o":"m 301 368 l 350 368 l 350 427 l 153 427 l 153 549 l 92 549 l 92 2 l 783 2 l 783 211 l 301 211 z m 783 724 l 783 934 l 92 934 l 92 587 l 191 587 l 191 465 l 388 465 l 388 368 l 701 368 l 783 574 l 783 577 l 301 577 l 301 724 z "},"è":{"ha":856,"x_min":0,"x_max":0,"o":"m 301 368 l 350 368 l 350 427 l 153 427 l 153 549 l 92 549 l 92 2 l 783 2 l 783 211 l 301 211 z m 783 724 l 783 934 l 92 934 l 92 587 l 191 587 l 191 465 l 388 465 l 388 368 l 701 368 l 783 574 l 783 577 l 301 577 l 301 724 z "},"é":{"ha":856,"x_min":0,"x_max":0,"o":"m 301 368 l 350 368 l 350 427 l 153 427 l 153 549 l 92 549 l 92 2 l 783 2 l 783 211 l 301 211 z m 783 724 l 783 934 l 92 934 l 92 587 l 191 587 l 191 465 l 388 465 l 388 368 l 701 368 l 783 574 l 783 577 l 301 577 l 301 724 z "},"ê":{"ha":856,"x_min":0,"x_max":0,"o":"m 301 368 l 350 368 l 350 427 l 153 427 l 153 549 l 92 549 l 92 2 l 783 2 l 783 211 l 301 211 z m 783 724 l 783 934 l 92 934 l 92 587 l 191 587 l 191 465 l 388 465 l 388 368 l 701 368 l 783 574 l 783 577 l 301 577 l 301 724 z "},"ë":{"ha":856,"x_min":0,"x_max":0,"o":"m 301 368 l 350 368 l 350 427 l 153 427 l 153 549 l 92 549 l 92 2 l 783 2 l 783 211 l 301 211 z m 783 724 l 783 934 l 92 934 l 92 587 l 191 587 l 191 465 l 388 465 l 388 368 l 701 368 l 783 574 l 783 577 l 301 577 l 301 724 z "},"f":{"ha":813,"x_min":0,"x_max":0,"o":"m 196 827 l 92 827 l 92 2 l 301 2 l 301 277 l 604 277 l 687 486 l 196 486 z m 92 933 l 92 865 l 234 865 l 234 524 l 301 524 l 301 724 l 786 724 l 786 933 z "},"g":{"ha":1058,"x_min":0,"x_max":0,"o":"m 688 566 l 605 357 l 777 357 b 551 211 733 275 648 217 l 551 146 b 837 337 672 153 783 226 l 842 348 l 998 348 b 1018 455 1009 382 1015 418 l 1025 566 l 688 566 z m 532 107 l 513 107 l 513 211 b 257 487 370 222 257 341 b 533 763 257 639 381 763 b 711 698 598 763 661 740 l 846 858 b 533 973 759 932 647 973 b 47 487 265 973 47 755 b 533 1 47 219 265 1 b 985 310 737 1 914 128 l 866 310 b 532 107 801 186 671 107 z "},"h":{"ha":983,"x_min":0,"x_max":0,"o":"m 680 934 l 680 572 l 410 572 l 410 512 l 680 512 l 680 94 l 890 3 l 890 934 z m 372 572 l 302 572 l 302 934 l 93 934 l 93 2 l 302 2 l 302 363 l 643 363 l 643 474 l 372 474 z "},"i":{"ha":390,"x_min":0,"x_max":0,"o":"m 89 932 l 89 799 l 241 799 l 241 514 l 298 514 l 298 932 z m 203 761 l 89 761 l 89 92 l 298 1 l 298 476 l 203 476 z "},"ì":{"ha":390,"x_min":0,"x_max":0,"o":"m 89 932 l 89 799 l 241 799 l 241 514 l 298 514 l 298 932 z m 203 761 l 89 761 l 89 92 l 298 1 l 298 476 l 203 476 z "},"í":{"ha":390,"x_min":0,"x_max":0,"o":"m 89 932 l 89 799 l 241 799 l 241 514 l 298 514 l 298 932 z m 203 761 l 89 761 l 89 92 l 298 1 l 298 476 l 203 476 z "},"î":{"ha":390,"x_min":0,"x_max":0,"o":"m 89 932 l 89 799 l 241 799 l 241 514 l 298 514 l 298 932 z m 203 761 l 89 761 l 89 92 l 298 1 l 298 476 l 203 476 z "},"ï":{"ha":390,"x_min":0,"x_max":0,"o":"m 89 932 l 89 799 l 241 799 l 241 514 l 298 514 l 298 932 z m 203 761 l 89 761 l 89 92 l 298 1 l 298 476 l 203 476 z "},"j":{"ha":806,"x_min":0,"x_max":0,"o":"m 524 931 l 524 810 l 685 810 l 685 465 l 733 465 l 733 931 z m 647 772 l 524 772 l 524 434 b 300 210 524 310 424 210 b 240 218 280 210 260 213 l 6 117 b 300 1 86 42 191 1 b 524 63 382 1 459 24 b 733 427 648 138 731 273 l 647 427 z "},"k":{"ha":924,"x_min":0,"x_max":0,"o":"m 596 240 l 683 240 l 449 474 l 908 934 l 613 934 l 301 622 l 301 842 l 92 933 l 92 528 l 309 527 z m 721 202 l 580 202 l 293 489 l 92 490 l 92 2 l 301 2 l 301 326 l 619 8 l 915 8 z "},"l":{"ha":776,"x_min":0,"x_max":0,"o":"m 520 211 l 520 87 l 92 87 l 92 2 l 92 2 l 92 2 l 758 2 l 758 211 z m 482 211 l 301 211 l 301 843 l 92 934 l 92 125 l 482 125 z "},"m":{"ha":1365,"x_min":0,"x_max":0,"o":"m 92 1 l 301 1 l 301 429 l 529 201 l 529 317 l 92 754 z m 683 343 l 92 933 l 92 933 l 92 808 l 567 333 l 567 163 l 683 47 l 1062 426 l 1062 92 l 1271 2 l 1271 932 z "},"n":{"ha":976,"x_min":0,"x_max":0,"o":"m 92 1 l 301 1 l 301 511 l 560 284 l 560 348 l 92 757 z m 883 938 l 674 847 l 674 463 l 92 972 l 92 807 l 598 366 l 598 251 l 883 2 l 883 2 l 883 2 z "},"ñ":{"ha":976,"x_min":0,"x_max":0,"o":"m 92 1 l 301 1 l 301 511 l 560 284 l 560 348 l 92 757 z m 883 938 l 674 847 l 674 463 l 92 972 l 92 807 l 598 366 l 598 251 l 883 2 l 883 2 l 883 2 z "},"o":{"ha":1026,"x_min":0,"x_max":0,"o":"m 153 356 b 214 240 167 314 187 275 b 296 163 238 210 265 184 l 358 263 b 269 384 317 293 287 335 b 281 581 247 449 251 519 b 512 725 325 672 417 725 b 623 700 550 725 587 717 l 706 835 l 723 825 b 830 728 764 799 800 767 b 892 617 856 695 877 657 l 949 631 b 716 888 908 740 828 834 b 93 672 484 1000 205 903 b 61 352 44 571 33 459 l 148 372 z m 960 595 l 867 572 l 861 589 b 800 705 848 631 827 670 b 718 782 777 735 749 761 l 656 681 b 755 553 702 650 736 606 b 743 356 777 488 773 418 b 596 226 713 295 661 248 b 400 237 531 203 462 208 b 390 243 397 239 394 241 l 308 110 l 292 120 b 184 216 250 146 214 178 b 123 327 158 250 137 287 l 72 315 b 309 49 113 198 197 103 b 512 2 373 18 442 2 b 665 28 563 2 615 11 b 931 265 782 69 877 153 b 960 595 983 372 990 489 z "},"ò":{"ha":1026,"x_min":0,"x_max":0,"o":"m 153 356 b 214 240 167 314 187 275 b 296 163 238 210 265 184 l 358 263 b 269 384 317 293 287 335 b 281 581 247 449 251 519 b 512 725 325 672 417 725 b 623 700 550 725 587 717 l 706 835 l 723 825 b 830 728 764 799 800 767 b 892 617 856 695 877 657 l 949 631 b 716 888 908 740 828 834 b 93 672 484 1000 205 903 b 61 352 44 571 33 459 l 148 372 z m 960 595 l 867 572 l 861 589 b 800 705 848 631 827 670 b 718 782 777 735 749 761 l 656 681 b 755 553 702 650 736 606 b 743 356 777 488 773 418 b 596 226 713 295 661 248 b 400 237 531 203 462 208 b 390 243 397 239 394 241 l 308 110 l 292 120 b 184 216 250 146 214 178 b 123 327 158 250 137 287 l 72 315 b 309 49 113 198 197 103 b 512 2 373 18 442 2 b 665 28 563 2 615 11 b 931 265 782 69 877 153 b 960 595 983 372 990 489 z "},"ó":{"ha":1026,"x_min":0,"x_max":0,"o":"m 153 356 b 214 240 167 314 187 275 b 296 163 238 210 265 184 l 358 263 b 269 384 317 293 287 335 b 281 581 247 449 251 519 b 512 725 325 672 417 725 b 623 700 550 725 587 717 l 706 835 l 723 825 b 830 728 764 799 800 767 b 892 617 856 695 877 657 l 949 631 b 716 888 908 740 828 834 b 93 672 484 1000 205 903 b 61 352 44 571 33 459 l 148 372 z m 960 595 l 867 572 l 861 589 b 800 705 848 631 827 670 b 718 782 777 735 749 761 l 656 681 b 755 553 702 650 736 606 b 743 356 777 488 773 418 b 596 226 713 295 661 248 b 400 237 531 203 462 208 b 390 243 397 239 394 241 l 308 110 l 292 120 b 184 216 250 146 214 178 b 123 327 158 250 137 287 l 72 315 b 309 49 113 198 197 103 b 512 2 373 18 442 2 b 665 28 563 2 615 11 b 931 265 782 69 877 153 b 960 595 983 372 990 489 z "},"ô":{"ha":1026,"x_min":0,"x_max":0,"o":"m 153 356 b 214 240 167 314 187 275 b 296 163 238 210 265 184 l 358 263 b 269 384 317 293 287 335 b 281 581 247 449 251 519 b 512 725 325 672 417 725 b 623 700 550 725 587 717 l 706 835 l 723 825 b 830 728 764 799 800 767 b 892 617 856 695 877 657 l 949 631 b 716 888 908 740 828 834 b 93 672 484 1000 205 903 b 61 352 44 571 33 459 l 148 372 z m 960 595 l 867 572 l 861 589 b 800 705 848 631 827 670 b 718 782 777 735 749 761 l 656 681 b 755 553 702 650 736 606 b 743 356 777 488 773 418 b 596 226 713 295 661 248 b 400 237 531 203 462 208 b 390 243 397 239 394 241 l 308 110 l 292 120 b 184 216 250 146 214 178 b 123 327 158 250 137 287 l 72 315 b 309 49 113 198 197 103 b 512 2 373 18 442 2 b 665 28 563 2 615 11 b 931 265 782 69 877 153 b 960 595 983 372 990 489 z "},"õ":{"ha":1026,"x_min":0,"x_max":0,"o":"m 153 356 b 214 240 167 314 187 275 b 296 163 238 210 265 184 l 358 263 b 269 384 317 293 287 335 b 281 581 247 449 251 519 b 512 725 325 672 417 725 b 623 700 550 725 587 717 l 706 835 l 723 825 b 830 728 764 799 800 767 b 892 617 856 695 877 657 l 949 631 b 716 888 908 740 828 834 b 93 672 484 1000 205 903 b 61 352 44 571 33 459 l 148 372 z m 960 595 l 867 572 l 861 589 b 800 705 848 631 827 670 b 718 782 777 735 749 761 l 656 681 b 755 553 702 650 736 606 b 743 356 777 488 773 418 b 596 226 713 295 661 248 b 400 237 531 203 462 208 b 390 243 397 239 394 241 l 308 110 l 292 120 b 184 216 250 146 214 178 b 123 327 158 250 137 287 l 72 315 b 309 49 113 198 197 103 b 512 2 373 18 442 2 b 665 28 563 2 615 11 b 931 265 782 69 877 153 b 960 595 983 372 990 489 z "},"ö":{"ha":1026,"x_min":0,"x_max":0,"o":"m 153 356 b 214 240 167 314 187 275 b 296 163 238 210 265 184 l 358 263 b 269 384 317 293 287 335 b 281 581 247 449 251 519 b 512 725 325 672 417 725 b 623 700 550 725 587 717 l 706 835 l 723 825 b 830 728 764 799 800 767 b 892 617 856 695 877 657 l 949 631 b 716 888 908 740 828 834 b 93 672 484 1000 205 903 b 61 352 44 571 33 459 l 148 372 z m 960 595 l 867 572 l 861 589 b 800 705 848 631 827 670 b 718 782 777 735 749 761 l 656 681 b 755 553 702 650 736 606 b 743 356 777 488 773 418 b 596 226 713 295 661 248 b 400 237 531 203 462 208 b 390 243 397 239 394 241 l 308 110 l 292 120 b 184 216 250 146 214 178 b 123 327 158 250 137 287 l 72 315 b 309 49 113 198 197 103 b 512 2 373 18 442 2 b 665 28 563 2 615 11 b 931 265 782 69 877 153 b 960 595 983 372 990 489 z "},"ø":{"ha":1026,"x_min":0,"x_max":0,"o":"m 153 356 b 214 240 167 314 187 275 b 296 163 238 210 265 184 l 358 263 b 269 384 317 293 287 335 b 281 581 247 449 251 519 b 512 725 325 672 417 725 b 623 700 550 725 587 717 l 706 835 l 723 825 b 830 728 764 799 800 767 b 892 617 856 695 877 657 l 949 631 b 716 888 908 740 828 834 b 93 672 484 1000 205 903 b 61 352 44 571 33 459 l 148 372 z m 960 595 l 867 572 l 861 589 b 800 705 848 631 827 670 b 718 782 777 735 749 761 l 656 681 b 755 553 702 650 736 606 b 743 356 777 488 773 418 b 596 226 713 295 661 248 b 400 237 531 203 462 208 b 390 243 397 239 394 241 l 308 110 l 292 120 b 184 216 250 146 214 178 b 123 327 158 250 137 287 l 72 315 b 309 49 113 198 197 103 b 512 2 373 18 442 2 b 665 28 563 2 615 11 b 931 265 782 69 877 153 b 960 595 983 372 990 489 z "},"p":{"ha":899,"x_min":0,"x_max":0,"o":"m 302 582 l 204 582 l 204 934 l 93 934 l 93 2 l 302 2 l 302 325 l 480 325 l 480 388 l 302 388 z m 559 934 l 242 934 l 242 620 l 302 620 l 302 725 l 559 725 b 654 629 612 725 654 682 b 559 534 654 577 612 534 l 340 534 l 340 427 l 518 427 l 518 325 l 559 325 b 864 629 727 325 864 462 b 559 934 864 797 727 934 z "},"q":{"ha":1103,"x_min":0,"x_max":0,"o":"m 690 118 l 594 215 b 418 239 536 204 475 211 b 274 401 350 272 299 329 b 287 618 249 473 254 550 b 449 762 320 686 377 737 b 542 778 479 773 511 778 b 666 749 584 778 627 768 b 810 401 796 686 856 535 l 967 244 b 986 279 973 255 980 267 b 757 938 1104 523 1002 819 b 380 960 639 995 505 1003 b 98 709 256 917 156 828 b 76 332 41 591 33 457 b 327 50 119 208 208 108 b 523 1 390 20 457 4 l 523 90 l 542 90 b 690 118 593 90 644 100 z m 709 451 l 502 361 l 756 107 b 561 52 697 74 630 55 l 561 2 b 793 70 643 5 723 29 l 901 -37 l 1049 111 z "},"r":{"ha":965,"x_min":0,"x_max":0,"o":"m 559 725 b 654 629 612 725 654 682 b 559 534 654 577 612 534 l 340 534 l 340 488 l 660 488 l 734 381 b 864 629 812 436 864 527 b 559 934 864 797 727 934 l 242 934 l 242 620 l 302 620 l 302 725 z m 640 450 l 302 450 l 302 582 l 204 582 l 204 934 l 93 934 l 93 2 l 302 93 l 302 325 l 484 325 l 696 2 l 946 2 z "},"s":{"ha":908,"x_min":0,"x_max":0,"o":"m 212 675 b 346 542 212 602 272 542 l 571 542 b 818 314 701 542 808 441 l 865 314 b 571 590 855 468 727 590 l 346 590 b 260 675 298 590 260 628 b 346 761 260 722 298 761 l 651 761 l 859 969 l 859 970 l 346 970 b 51 694 189 970 61 848 l 212 694 z m 780 295 b 571 504 780 410 686 504 l 346 504 b 175 656 258 504 185 571 l 51 656 b 346 380 61 503 189 380 l 571 380 b 657 295 618 380 657 342 b 571 209 657 248 618 209 l 114 209 l 114 0 l 571 0 b 865 276 727 0 855 122 l 780 276 z "},"t":{"ha":836,"x_min":0,"x_max":0,"o":"m 424 829 l 195 829 l 195 934 l 18 934 l 18 725 l 319 725 l 319 2 l 529 2 l 529 518 l 424 518 z m 233 934 l 233 867 l 462 867 l 462 556 l 529 556 l 529 725 l 747 725 l 830 934 z "},"u":{"ha":1017,"x_min":0,"x_max":0,"o":"m 735 939 l 735 436 b 531 211 735 319 645 222 l 531 149 b 723 241 604 154 673 187 l 736 255 l 845 160 b 944 437 906 236 944 332 l 944 939 z m 512 110 l 492 110 l 492 210 b 281 438 375 219 281 317 l 281 848 l 75 937 l 72 938 l 72 436 b 508 0 72 196 268 0 b 819 132 630 0 740 51 l 738 202 b 512 110 678 143 596 110 z "},"ù":{"ha":1017,"x_min":0,"x_max":0,"o":"m 735 939 l 735 436 b 531 211 735 319 645 222 l 531 149 b 723 241 604 154 673 187 l 736 255 l 845 160 b 944 437 906 236 944 332 l 944 939 z m 512 110 l 492 110 l 492 210 b 281 438 375 219 281 317 l 281 848 l 75 937 l 72 938 l 72 436 b 508 0 72 196 268 0 b 819 132 630 0 740 51 l 738 202 b 512 110 678 143 596 110 z "},"ú":{"ha":1017,"x_min":0,"x_max":0,"o":"m 735 939 l 735 436 b 531 211 735 319 645 222 l 531 149 b 723 241 604 154 673 187 l 736 255 l 845 160 b 944 437 906 236 944 332 l 944 939 z m 512 110 l 492 110 l 492 210 b 281 438 375 219 281 317 l 281 848 l 75 937 l 72 938 l 72 436 b 508 0 72 196 268 0 b 819 132 630 0 740 51 l 738 202 b 512 110 678 143 596 110 z "},"û":{"ha":1017,"x_min":0,"x_max":0,"o":"m 735 939 l 735 436 b 531 211 735 319 645 222 l 531 149 b 723 241 604 154 673 187 l 736 255 l 845 160 b 944 437 906 236 944 332 l 944 939 z m 512 110 l 492 110 l 492 210 b 281 438 375 219 281 317 l 281 848 l 75 937 l 72 938 l 72 436 b 508 0 72 196 268 0 b 819 132 630 0 740 51 l 738 202 b 512 110 678 143 596 110 z "},"ü":{"ha":1017,"x_min":0,"x_max":0,"o":"m 735 939 l 735 436 b 531 211 735 319 645 222 l 531 149 b 723 241 604 154 673 187 l 736 255 l 845 160 b 944 437 906 236 944 332 l 944 939 z m 512 110 l 492 110 l 492 210 b 281 438 375 219 281 317 l 281 848 l 75 937 l 72 938 l 72 436 b 508 0 72 196 268 0 b 819 132 630 0 740 51 l 738 202 b 512 110 678 143 596 110 z "},"v":{"ha":913,"x_min":0,"x_max":0,"o":"m 675 929 l 477 499 l 562 314 l 496 175 l 527 107 l 905 929 z m 520 314 l 237 929 l 7 929 l 456 -48 l 506 62 l 454 175 z "},"w":{"ha":1376,"x_min":0,"x_max":0,"o":"m 629 627 l 483 387 l 236 926 l 6 926 l 455 -51 l 457 -58 l 688 321 l 841 69 l 897 191 z m 1140 926 l 892 387 l 688 724 l 652 664 l 940 193 l 865 30 l 918 -58 l 921 -51 l 1370 926 z "},"x":{"ha":964,"x_min":0,"x_max":0,"o":"m 799 217 l 610 483 l 929 930 l 672 930 l 482 663 l 292 930 l 204 930 l 712 217 z m 826 179 l 692 179 l 157 930 l 35 930 l 353 483 l 11 2 l 268 2 l 482 302 l 695 2 l 952 2 z "},"y":{"ha":1001,"x_min":0,"x_max":0,"o":"m 748 932 l 500 572 l 253 932 l -1 932 l 97 789 l 274 789 l 573 368 l 614 368 l 1002 932 z m 254 751 l 123 751 l 394 357 l 394 2 l 603 2 l 603 330 l 554 330 z "},"ý":{"ha":1001,"x_min":0,"x_max":0,"o":"m 748 932 l 500 572 l 253 932 l -1 932 l 97 789 l 274 789 l 573 368 l 614 368 l 1002 932 z m 254 751 l 123 751 l 394 357 l 394 2 l 603 2 l 603 330 l 554 330 z "},"ÿ":{"ha":1001,"x_min":0,"x_max":0,"o":"m 748 932 l 500 572 l 253 932 l -1 932 l 97 789 l 274 789 l 573 368 l 614 368 l 1002 932 z m 254 751 l 123 751 l 394 357 l 394 2 l 603 2 l 603 330 l 554 330 z "},"z":{"ha":981,"x_min":0,"x_max":0,"o":"m 637 477 l 637 477 l 516 477 l 657 670 l 518 670 l 28 2 l 787 2 l 941 211 l 941 212 l 441 212 z m 46 917 l 46 708 l 732 708 l 591 515 l 664 515 l 959 917 l 959 917 z "},"{":{"ha":1658,"x_min":0,"x_max":0,"o":"m 1601 950 l 1601 1064 l 1401 1064 l 1401 425 l 1315 425 l 1315 773 l 615 773 b 504 842 595 814 553 842 b 381 718 436 842 381 786 b 504 595 381 650 436 595 b 613 659 551 595 592 621 l 1201 659 l 1201 425 l 1055 425 l 1055 570 l 279 570 b 168 639 259 611 217 639 b 44 515 100 639 44 583 b 168 392 44 447 100 392 b 276 456 215 392 255 418 l 941 456 l 941 278 l 695 278 b 587 342 674 316 633 342 b 463 219 518 342 463 287 b 587 95 463 151 518 95 b 697 164 635 95 677 123 l 1055 164 l 1055 309 l 1401 309 l 1401 -132 l 1601 -132 l 1601 -17 l 1515 -17 l 1515 950 z "},"|":{"ha":396,"x_min":0,"x_max":0,"o":"m 302 -48 l 302 1005 l 93 1005 l 93 -48 z "},"}":{"ha":1658,"x_min":0,"x_max":0,"o":"m 1489 639 b 1379 570 1441 639 1399 611 l 602 570 l 602 425 l 456 425 l 456 659 l 1045 659 b 1153 595 1066 621 1107 595 b 1277 718 1221 595 1277 650 b 1153 842 1277 786 1221 842 b 1043 773 1105 842 1063 814 l 342 773 l 342 425 l 257 425 l 257 1064 l 57 1064 l 57 950 l 143 950 l 143 -17 l 57 -17 l 57 -132 l 257 -132 l 257 309 l 602 309 l 602 164 l 960 164 b 1071 95 980 123 1022 95 b 1195 219 1139 95 1195 151 b 1071 342 1195 287 1139 342 b 962 278 1024 342 984 317 l 717 278 l 717 456 l 1381 456 b 1489 392 1402 418 1443 392 b 1613 515 1558 392 1613 447 b 1489 639 1613 583 1558 639 z "},"~":{"ha":446,"x_min":0,"x_max":0,"o":"m 413 388 l 254 388 l 254 444 l 250 444 l 191 431 l 26 395 l 32 349 l 191 349 l 191 292 l 195 293 l 254 306 l 419 342 z "}," ":{"ha":454,"x_min":0,"x_max":0,"o":""},"¢":{"ha":715,"x_min":0,"x_max":0,"o":"m 642 670 l 642 841 l 487 841 l 487 973 l 354 973 l 354 841 l 326 841 b 68 570 225 841 68 725 l 68 414 b 324 134 68 263 209 134 l 354 134 l 354 2 l 487 2 l 487 134 l 642 134 l 642 305 l 487 305 l 487 670 z m 325 305 b 239 414 304 307 239 355 l 239 570 b 326 670 239 620 303 667 l 354 670 l 354 305 z "},"£":{"ha":788,"x_min":0,"x_max":0,"o":"m 467 778 l 725 778 l 725 949 l 467 949 b 208 678 365 949 208 833 l 208 488 l 67 488 l 67 317 l 208 317 l 208 168 l 67 168 l 67 -3 l 725 -3 l 725 168 l 379 168 l 379 317 l 536 317 l 536 488 l 379 488 l 379 678 b 467 778 379 728 443 775 z "},"¥":{"ha":826,"x_min":0,"x_max":0,"o":"m 499 469 l 781 951 l 604 951 l 414 625 l 223 951 l 46 951 l 328 469 l 328 415 l 139 415 l 139 300 l 328 300 l 328 238 l 139 238 l 139 167 l 328 167 l 328 -2 l 499 -2 l 499 167 l 680 167 l 680 238 l 499 238 l 499 300 l 680 300 l 680 415 l 499 415 z "},"©":{"ha":1089,"x_min":0,"x_max":0,"o":"m 446 438 l 446 532 b 491 577 446 557 466 577 l 703 577 l 703 710 l 491 710 b 313 532 393 710 313 630 l 313 438 b 497 254 313 336 395 254 l 709 254 l 709 387 l 497 387 b 446 438 469 387 446 410 z m 544 961 b 65 482 280 961 65 746 b 544 3 65 218 280 3 b 1023 482 808 3 1023 218 b 544 961 1023 746 808 961 z m 544 136 b 198 482 353 136 198 291 b 544 828 198 673 353 828 b 890 482 735 828 890 673 b 544 136 890 291 735 136 z "},"­":{"ha":0,"x_min":0,"x_max":0,"o":""},"®":{"ha":1089,"x_min":0,"x_max":0,"o":"m 743 595 l 743 660 b 595 808 743 742 677 808 l 342 808 l 342 313 l 475 313 l 475 675 l 595 675 b 610 660 603 675 610 669 l 610 595 b 599 583 610 588 605 583 l 503 583 l 604 313 l 746 313 l 684 478 b 743 595 720 504 743 547 z m 544 1039 b 65 561 280 1039 65 825 b 544 82 65 297 280 82 b 1023 561 808 82 1023 297 b 544 1039 1023 825 808 1039 z m 544 215 b 198 561 354 215 198 370 b 544 906 198 751 354 906 b 890 561 735 906 890 751 b 544 215 890 370 735 215 z "},"€":{"ha":744,"x_min":0,"x_max":0,"o":"m 681 782 l 681 953 l 422 953 b 175 603 302 953 206 755 l 57 603 l 57 499 l 164 499 l 164 454 b 165 429 164 446 164 438 l 57 429 l 57 325 l 181 325 b 420 4 218 175 307 4 l 681 4 l 681 175 l 435 175 b 358 325 414 195 380 255 l 487 325 l 487 429 l 336 429 b 335 454 335 438 335 446 l 335 499 l 487 499 l 487 603 l 349 603 b 438 782 371 683 414 758 z "}}}
